<mxfile host="app.diagrams.net" modified="2024-03-17T12:37:07.327Z" agent="Mozilla/5.0 (Windows NT 10.0; Win64; x64) AppleWebKit/537.36 (KHTML, like Gecko) Chrome/122.0.0.0 Safari/537.36" etag="hdIwSDzoXH1CTCw_cgZx" version="24.0.6" type="github">
  <diagram name="第 1 页" id="tkgYI_LDGpDvr5zShaxb">
    <mxGraphModel dx="971" dy="736" grid="1" gridSize="10" guides="1" tooltips="1" connect="1" arrows="1" fold="1" page="1" pageScale="1" pageWidth="827" pageHeight="1169" math="0" shadow="0">
      <root>
        <mxCell id="0" />
        <mxCell id="1" parent="0" />
        <mxCell id="_IL2AXfH564OVT6Zhhkw-1" value="宠物商品与服务" style="rounded=0;whiteSpace=wrap;html=1;" vertex="1" parent="1">
          <mxGeometry x="360" y="560" width="120" height="40" as="geometry" />
        </mxCell>
        <mxCell id="_IL2AXfH564OVT6Zhhkw-17" value="" style="edgeStyle=orthogonalEdgeStyle;rounded=0;orthogonalLoop=1;jettySize=auto;html=1;endArrow=none;endFill=0;" edge="1" parent="1" source="_IL2AXfH564OVT6Zhhkw-2" target="_IL2AXfH564OVT6Zhhkw-8">
          <mxGeometry relative="1" as="geometry" />
        </mxCell>
        <mxCell id="_IL2AXfH564OVT6Zhhkw-2" value="用户" style="rounded=0;whiteSpace=wrap;html=1;" vertex="1" parent="1">
          <mxGeometry x="120" y="560" width="120" height="40" as="geometry" />
        </mxCell>
        <mxCell id="_IL2AXfH564OVT6Zhhkw-6" style="edgeStyle=orthogonalEdgeStyle;rounded=0;orthogonalLoop=1;jettySize=auto;html=1;entryX=1;entryY=0.5;entryDx=0;entryDy=0;startArrow=none;startFill=0;endArrow=none;endFill=0;" edge="1" parent="1" source="_IL2AXfH564OVT6Zhhkw-3" target="_IL2AXfH564OVT6Zhhkw-1">
          <mxGeometry relative="1" as="geometry" />
        </mxCell>
        <mxCell id="_IL2AXfH564OVT6Zhhkw-34" value="" style="edgeStyle=orthogonalEdgeStyle;rounded=0;orthogonalLoop=1;jettySize=auto;html=1;endArrow=none;endFill=0;" edge="1" parent="1" source="_IL2AXfH564OVT6Zhhkw-3" target="_IL2AXfH564OVT6Zhhkw-25">
          <mxGeometry relative="1" as="geometry" />
        </mxCell>
        <mxCell id="_IL2AXfH564OVT6Zhhkw-35" value="" style="edgeStyle=orthogonalEdgeStyle;rounded=0;orthogonalLoop=1;jettySize=auto;html=1;endArrow=none;endFill=0;" edge="1" parent="1" source="_IL2AXfH564OVT6Zhhkw-3" target="_IL2AXfH564OVT6Zhhkw-30">
          <mxGeometry relative="1" as="geometry" />
        </mxCell>
        <mxCell id="_IL2AXfH564OVT6Zhhkw-3" value="管理员" style="rounded=0;whiteSpace=wrap;html=1;" vertex="1" parent="1">
          <mxGeometry x="600" y="560" width="120" height="40" as="geometry" />
        </mxCell>
        <mxCell id="_IL2AXfH564OVT6Zhhkw-5" value="" style="endArrow=none;html=1;rounded=0;entryX=1;entryY=0.5;entryDx=0;entryDy=0;exitX=0;exitY=0.5;exitDx=0;exitDy=0;" edge="1" parent="1" source="_IL2AXfH564OVT6Zhhkw-1" target="_IL2AXfH564OVT6Zhhkw-2">
          <mxGeometry width="50" height="50" relative="1" as="geometry">
            <mxPoint x="390" y="600" as="sourcePoint" />
            <mxPoint x="440" y="550" as="targetPoint" />
          </mxGeometry>
        </mxCell>
        <mxCell id="_IL2AXfH564OVT6Zhhkw-18" value="" style="edgeStyle=orthogonalEdgeStyle;rounded=0;orthogonalLoop=1;jettySize=auto;html=1;" edge="1" parent="1" source="_IL2AXfH564OVT6Zhhkw-7" target="_IL2AXfH564OVT6Zhhkw-2">
          <mxGeometry relative="1" as="geometry" />
        </mxCell>
        <mxCell id="_IL2AXfH564OVT6Zhhkw-7" value="&lt;p style=&quot;line-height: 100%;&quot;&gt;&lt;/p&gt;&lt;div style=&quot;text-align: justify; font-size: 16px;&quot;&gt;&lt;span style=&quot;background-color: initial;&quot;&gt;&lt;font style=&quot;font-size: 16px;&quot;&gt;预&lt;/font&gt;&lt;/span&gt;&lt;/div&gt;&lt;div style=&quot;text-align: justify; font-size: 16px;&quot;&gt;&lt;span style=&quot;background-color: initial;&quot;&gt;&lt;font style=&quot;font-size: 16px;&quot;&gt;约&lt;/font&gt;&lt;/span&gt;&lt;/div&gt;&lt;div style=&quot;text-align: justify; font-size: 16px;&quot;&gt;&lt;span style=&quot;background-color: initial;&quot;&gt;&lt;font style=&quot;font-size: 16px;&quot;&gt;服&lt;/font&gt;&lt;/span&gt;&lt;/div&gt;&lt;div style=&quot;text-align: justify; font-size: 16px;&quot;&gt;&lt;span style=&quot;background-color: initial;&quot;&gt;&lt;font style=&quot;font-size: 16px;&quot;&gt;务&lt;/font&gt;&lt;/span&gt;&lt;/div&gt;&lt;p&gt;&lt;/p&gt;" style="rounded=0;whiteSpace=wrap;html=1;" vertex="1" parent="1">
          <mxGeometry x="130" y="680" width="40" height="120" as="geometry" />
        </mxCell>
        <mxCell id="_IL2AXfH564OVT6Zhhkw-8" value="&lt;p style=&quot;line-height: 100%;&quot;&gt;&lt;/p&gt;&lt;div style=&quot;text-align: justify; font-size: 16px;&quot;&gt;商&lt;/div&gt;&lt;div style=&quot;text-align: justify; font-size: 16px;&quot;&gt;品&lt;/div&gt;&lt;div style=&quot;text-align: justify; font-size: 16px;&quot;&gt;下&lt;/div&gt;&lt;div style=&quot;text-align: justify; font-size: 16px;&quot;&gt;单&lt;/div&gt;&lt;p&gt;&lt;/p&gt;" style="rounded=0;whiteSpace=wrap;html=1;" vertex="1" parent="1">
          <mxGeometry x="190" y="680" width="40" height="120" as="geometry" />
        </mxCell>
        <mxCell id="_IL2AXfH564OVT6Zhhkw-9" value="&lt;p style=&quot;line-height: 100%;&quot;&gt;&lt;/p&gt;&lt;div style=&quot;text-align: justify; font-size: 16px;&quot;&gt;登&lt;/div&gt;&lt;div style=&quot;text-align: justify; font-size: 16px;&quot;&gt;录&lt;/div&gt;&lt;div style=&quot;text-align: justify; font-size: 16px;&quot;&gt;注&lt;/div&gt;&lt;div style=&quot;text-align: justify; font-size: 16px;&quot;&gt;册&lt;/div&gt;&lt;p&gt;&lt;/p&gt;" style="rounded=0;whiteSpace=wrap;html=1;" vertex="1" parent="1">
          <mxGeometry x="250" y="680" width="40" height="120" as="geometry" />
        </mxCell>
        <mxCell id="_IL2AXfH564OVT6Zhhkw-16" style="edgeStyle=orthogonalEdgeStyle;rounded=0;orthogonalLoop=1;jettySize=auto;html=1;entryX=0.5;entryY=0;entryDx=0;entryDy=0;endArrow=none;endFill=0;" edge="1" parent="1" source="_IL2AXfH564OVT6Zhhkw-10" target="_IL2AXfH564OVT6Zhhkw-9">
          <mxGeometry relative="1" as="geometry">
            <mxPoint x="90" y="640" as="targetPoint" />
            <Array as="points">
              <mxPoint x="90" y="640" />
              <mxPoint x="270" y="640" />
            </Array>
          </mxGeometry>
        </mxCell>
        <mxCell id="_IL2AXfH564OVT6Zhhkw-10" value="&lt;p style=&quot;line-height: 100%;&quot;&gt;&lt;/p&gt;&lt;div style=&quot;text-align: justify; font-size: 16px;&quot;&gt;浏&lt;/div&gt;&lt;div style=&quot;text-align: justify; font-size: 16px;&quot;&gt;览&lt;/div&gt;&lt;div style=&quot;text-align: justify; font-size: 16px;&quot;&gt;商&lt;/div&gt;&lt;div style=&quot;text-align: justify; font-size: 16px;&quot;&gt;品&lt;/div&gt;&lt;p&gt;&lt;/p&gt;" style="rounded=0;whiteSpace=wrap;html=1;" vertex="1" parent="1">
          <mxGeometry x="70" y="680" width="40" height="120" as="geometry" />
        </mxCell>
        <mxCell id="_IL2AXfH564OVT6Zhhkw-19" value="" style="edgeStyle=orthogonalEdgeStyle;rounded=0;orthogonalLoop=1;jettySize=auto;html=1;endArrow=none;endFill=0;" edge="1" parent="1" source="_IL2AXfH564OVT6Zhhkw-12" target="_IL2AXfH564OVT6Zhhkw-2">
          <mxGeometry relative="1" as="geometry" />
        </mxCell>
        <mxCell id="_IL2AXfH564OVT6Zhhkw-12" value="&lt;p style=&quot;line-height: 100%;&quot;&gt;&lt;/p&gt;&lt;div style=&quot;text-align: justify; font-size: 16px;&quot;&gt;邀&lt;/div&gt;&lt;div style=&quot;text-align: justify; font-size: 16px;&quot;&gt;请&lt;/div&gt;&lt;div style=&quot;text-align: justify; font-size: 16px;&quot;&gt;好&lt;/div&gt;&lt;div style=&quot;text-align: justify; font-size: 16px;&quot;&gt;友&lt;/div&gt;&lt;p&gt;&lt;/p&gt;" style="rounded=0;whiteSpace=wrap;html=1;" vertex="1" parent="1">
          <mxGeometry x="80" y="360" width="40" height="120" as="geometry" />
        </mxCell>
        <mxCell id="_IL2AXfH564OVT6Zhhkw-21" value="" style="edgeStyle=orthogonalEdgeStyle;rounded=0;orthogonalLoop=1;jettySize=auto;html=1;" edge="1" parent="1" source="_IL2AXfH564OVT6Zhhkw-13" target="_IL2AXfH564OVT6Zhhkw-2">
          <mxGeometry relative="1" as="geometry" />
        </mxCell>
        <mxCell id="_IL2AXfH564OVT6Zhhkw-13" value="&lt;p style=&quot;line-height: 100%;&quot;&gt;&lt;/p&gt;&lt;div style=&quot;text-align: justify; font-size: 16px;&quot;&gt;签&lt;/div&gt;&lt;div style=&quot;text-align: justify; font-size: 16px;&quot;&gt;到&lt;/div&gt;&lt;p&gt;&lt;/p&gt;" style="rounded=0;whiteSpace=wrap;html=1;" vertex="1" parent="1">
          <mxGeometry x="140" y="360" width="40" height="120" as="geometry" />
        </mxCell>
        <mxCell id="_IL2AXfH564OVT6Zhhkw-22" value="" style="edgeStyle=orthogonalEdgeStyle;rounded=0;orthogonalLoop=1;jettySize=auto;html=1;" edge="1" parent="1" source="_IL2AXfH564OVT6Zhhkw-14" target="_IL2AXfH564OVT6Zhhkw-2">
          <mxGeometry relative="1" as="geometry" />
        </mxCell>
        <mxCell id="_IL2AXfH564OVT6Zhhkw-14" value="&lt;p style=&quot;line-height: 100%;&quot;&gt;&lt;/p&gt;&lt;div style=&quot;text-align: justify; font-size: 16px;&quot;&gt;查&lt;/div&gt;&lt;div style=&quot;text-align: justify; font-size: 16px;&quot;&gt;看&lt;/div&gt;&lt;div style=&quot;text-align: justify; font-size: 16px;&quot;&gt;积&lt;/div&gt;&lt;div style=&quot;text-align: justify; font-size: 16px;&quot;&gt;分&lt;/div&gt;&lt;p&gt;&lt;/p&gt;" style="rounded=0;whiteSpace=wrap;html=1;" vertex="1" parent="1">
          <mxGeometry x="200" y="360" width="40" height="120" as="geometry" />
        </mxCell>
        <mxCell id="_IL2AXfH564OVT6Zhhkw-20" style="edgeStyle=orthogonalEdgeStyle;rounded=0;orthogonalLoop=1;jettySize=auto;html=1;endArrow=none;endFill=0;" edge="1" parent="1" source="_IL2AXfH564OVT6Zhhkw-15">
          <mxGeometry relative="1" as="geometry">
            <mxPoint x="180" y="560" as="targetPoint" />
            <Array as="points">
              <mxPoint x="280" y="520" />
              <mxPoint x="181" y="520" />
            </Array>
          </mxGeometry>
        </mxCell>
        <mxCell id="_IL2AXfH564OVT6Zhhkw-15" value="&lt;p style=&quot;line-height: 100%;&quot;&gt;&lt;/p&gt;&lt;div style=&quot;text-align: justify; font-size: 16px;&quot;&gt;浏&lt;/div&gt;&lt;div style=&quot;text-align: justify; font-size: 16px;&quot;&gt;览&lt;/div&gt;&lt;div style=&quot;text-align: justify; font-size: 16px;&quot;&gt;帖&lt;/div&gt;&lt;div style=&quot;text-align: justify; font-size: 16px;&quot;&gt;子&lt;/div&gt;&lt;p&gt;&lt;/p&gt;" style="rounded=0;whiteSpace=wrap;html=1;" vertex="1" parent="1">
          <mxGeometry x="260" y="360" width="40" height="120" as="geometry" />
        </mxCell>
        <mxCell id="_IL2AXfH564OVT6Zhhkw-36" value="" style="edgeStyle=orthogonalEdgeStyle;rounded=0;orthogonalLoop=1;jettySize=auto;html=1;" edge="1" parent="1" source="_IL2AXfH564OVT6Zhhkw-24" target="_IL2AXfH564OVT6Zhhkw-3">
          <mxGeometry relative="1" as="geometry" />
        </mxCell>
        <mxCell id="_IL2AXfH564OVT6Zhhkw-24" value="&lt;p style=&quot;line-height: 100%;&quot;&gt;&lt;/p&gt;&lt;div style=&quot;text-align: justify; font-size: 16px;&quot;&gt;商&lt;/div&gt;&lt;div style=&quot;text-align: justify; font-size: 16px;&quot;&gt;品&lt;/div&gt;&lt;div style=&quot;text-align: justify; font-size: 16px;&quot;&gt;管&lt;/div&gt;&lt;div style=&quot;text-align: justify; font-size: 16px;&quot;&gt;理&lt;/div&gt;&lt;p&gt;&lt;/p&gt;" style="rounded=0;whiteSpace=wrap;html=1;" vertex="1" parent="1">
          <mxGeometry x="610" y="360" width="40" height="120" as="geometry" />
        </mxCell>
        <mxCell id="_IL2AXfH564OVT6Zhhkw-25" value="&lt;p style=&quot;line-height: 100%;&quot;&gt;&lt;/p&gt;&lt;div style=&quot;text-align: justify; font-size: 16px;&quot;&gt;发&lt;/div&gt;&lt;div style=&quot;text-align: justify; font-size: 16px;&quot;&gt;帖&lt;/div&gt;&lt;div style=&quot;text-align: justify; font-size: 16px;&quot;&gt;管&lt;/div&gt;&lt;div style=&quot;text-align: justify; font-size: 16px;&quot;&gt;理&lt;/div&gt;&lt;p&gt;&lt;/p&gt;" style="rounded=0;whiteSpace=wrap;html=1;" vertex="1" parent="1">
          <mxGeometry x="670" y="360" width="40" height="120" as="geometry" />
        </mxCell>
        <mxCell id="_IL2AXfH564OVT6Zhhkw-26" value="&lt;p style=&quot;line-height: 100%;&quot;&gt;&lt;/p&gt;&lt;div style=&quot;text-align: justify; font-size: 16px;&quot;&gt;轮&lt;/div&gt;&lt;div style=&quot;text-align: justify; font-size: 16px;&quot;&gt;播&lt;/div&gt;&lt;div style=&quot;text-align: justify; font-size: 16px;&quot;&gt;图&lt;/div&gt;&lt;div style=&quot;text-align: justify; font-size: 16px;&quot;&gt;管&lt;/div&gt;&lt;div style=&quot;text-align: justify; font-size: 16px;&quot;&gt;理&lt;/div&gt;&lt;p&gt;&lt;/p&gt;" style="rounded=0;whiteSpace=wrap;html=1;" vertex="1" parent="1">
          <mxGeometry x="730" y="360" width="40" height="120" as="geometry" />
        </mxCell>
        <mxCell id="_IL2AXfH564OVT6Zhhkw-33" style="edgeStyle=orthogonalEdgeStyle;rounded=0;orthogonalLoop=1;jettySize=auto;html=1;entryX=0.5;entryY=1;entryDx=0;entryDy=0;endArrow=none;endFill=0;" edge="1" parent="1" source="_IL2AXfH564OVT6Zhhkw-27" target="_IL2AXfH564OVT6Zhhkw-26">
          <mxGeometry relative="1" as="geometry">
            <Array as="points">
              <mxPoint x="560" y="520" />
              <mxPoint x="750" y="520" />
            </Array>
          </mxGeometry>
        </mxCell>
        <mxCell id="_IL2AXfH564OVT6Zhhkw-27" value="&lt;p style=&quot;line-height: 100%;&quot;&gt;&lt;/p&gt;&lt;div style=&quot;text-align: justify; font-size: 16px;&quot;&gt;用&lt;/div&gt;&lt;div style=&quot;text-align: justify; font-size: 16px;&quot;&gt;户&lt;/div&gt;&lt;div style=&quot;text-align: justify; font-size: 16px;&quot;&gt;管&lt;/div&gt;&lt;div style=&quot;text-align: justify; font-size: 16px;&quot;&gt;理&lt;/div&gt;&lt;p&gt;&lt;/p&gt;" style="rounded=0;whiteSpace=wrap;html=1;" vertex="1" parent="1">
          <mxGeometry x="550" y="360" width="40" height="120" as="geometry" />
        </mxCell>
        <mxCell id="_IL2AXfH564OVT6Zhhkw-32" style="edgeStyle=orthogonalEdgeStyle;rounded=0;orthogonalLoop=1;jettySize=auto;html=1;entryX=0.5;entryY=0;entryDx=0;entryDy=0;endArrow=none;endFill=0;" edge="1" parent="1" source="_IL2AXfH564OVT6Zhhkw-28" target="_IL2AXfH564OVT6Zhhkw-31">
          <mxGeometry relative="1" as="geometry">
            <Array as="points">
              <mxPoint x="560" y="640" />
              <mxPoint x="750" y="640" />
            </Array>
          </mxGeometry>
        </mxCell>
        <mxCell id="_IL2AXfH564OVT6Zhhkw-28" value="&lt;p style=&quot;line-height: 100%;&quot;&gt;&lt;/p&gt;&lt;div style=&quot;text-align: justify; font-size: 16px;&quot;&gt;预&lt;/div&gt;&lt;div style=&quot;text-align: justify; font-size: 16px;&quot;&gt;约&lt;/div&gt;&lt;div style=&quot;text-align: justify; font-size: 16px;&quot;&gt;管&lt;/div&gt;&lt;div style=&quot;text-align: justify; font-size: 16px;&quot;&gt;理&lt;/div&gt;&lt;p&gt;&lt;/p&gt;" style="rounded=0;whiteSpace=wrap;html=1;" vertex="1" parent="1">
          <mxGeometry x="550" y="680" width="40" height="120" as="geometry" />
        </mxCell>
        <mxCell id="_IL2AXfH564OVT6Zhhkw-37" value="" style="edgeStyle=orthogonalEdgeStyle;rounded=0;orthogonalLoop=1;jettySize=auto;html=1;" edge="1" parent="1" source="_IL2AXfH564OVT6Zhhkw-29" target="_IL2AXfH564OVT6Zhhkw-3">
          <mxGeometry relative="1" as="geometry" />
        </mxCell>
        <mxCell id="_IL2AXfH564OVT6Zhhkw-29" value="&lt;p style=&quot;line-height: 100%;&quot;&gt;&lt;/p&gt;&lt;div style=&quot;text-align: justify; font-size: 16px;&quot;&gt;商&lt;/div&gt;&lt;div style=&quot;text-align: justify; font-size: 16px;&quot;&gt;品&lt;/div&gt;&lt;div style=&quot;text-align: justify; font-size: 16px;&quot;&gt;分&lt;/div&gt;&lt;div style=&quot;text-align: justify; font-size: 16px;&quot;&gt;类&lt;/div&gt;&lt;div style=&quot;text-align: justify; font-size: 16px;&quot;&gt;管&lt;/div&gt;&lt;div style=&quot;text-align: justify; font-size: 16px;&quot;&gt;理&lt;/div&gt;&lt;p&gt;&lt;/p&gt;" style="rounded=0;whiteSpace=wrap;html=1;" vertex="1" parent="1">
          <mxGeometry x="610" y="680" width="40" height="120" as="geometry" />
        </mxCell>
        <mxCell id="_IL2AXfH564OVT6Zhhkw-30" value="&lt;p style=&quot;line-height: 100%;&quot;&gt;&lt;/p&gt;&lt;div style=&quot;text-align: justify; font-size: 16px;&quot;&gt;预&lt;/div&gt;&lt;div style=&quot;text-align: justify; font-size: 16px;&quot;&gt;约&lt;/div&gt;&lt;div style=&quot;text-align: justify; font-size: 16px;&quot;&gt;分&lt;/div&gt;&lt;div style=&quot;text-align: justify; font-size: 16px;&quot;&gt;类&lt;/div&gt;&lt;div style=&quot;text-align: justify; font-size: 16px;&quot;&gt;管&lt;/div&gt;&lt;div style=&quot;text-align: justify; font-size: 16px;&quot;&gt;理&lt;/div&gt;&lt;p&gt;&lt;/p&gt;" style="rounded=0;whiteSpace=wrap;html=1;" vertex="1" parent="1">
          <mxGeometry x="670" y="680" width="40" height="120" as="geometry" />
        </mxCell>
        <mxCell id="_IL2AXfH564OVT6Zhhkw-31" value="&lt;p style=&quot;line-height: 100%;&quot;&gt;&lt;/p&gt;&lt;div style=&quot;text-align: justify; font-size: 16px;&quot;&gt;积&lt;/div&gt;&lt;div style=&quot;text-align: justify; font-size: 16px;&quot;&gt;分&lt;/div&gt;&lt;div style=&quot;text-align: justify; font-size: 16px;&quot;&gt;管&lt;/div&gt;&lt;div style=&quot;text-align: justify; font-size: 16px;&quot;&gt;理&lt;/div&gt;&lt;p&gt;&lt;/p&gt;" style="rounded=0;whiteSpace=wrap;html=1;" vertex="1" parent="1">
          <mxGeometry x="730" y="680" width="40" height="120" as="geometry" />
        </mxCell>
      </root>
    </mxGraphModel>
  </diagram>
</mxfile>
